<?xml version="1.0" encoding="UTF-8" standalone="no"?>
<!-- Created with Inkscape (http://www.inkscape.org/) -->

<svg
   xmlns:dc="http://purl.org/dc/elements/1.1/"
   xmlns:cc="http://creativecommons.org/ns#"
   xmlns:rdf="http://www.w3.org/1999/02/22-rdf-syntax-ns#"
   xmlns:svg="http://www.w3.org/2000/svg"
   xmlns="http://www.w3.org/2000/svg"
   xmlns:sodipodi="http://sodipodi.sourceforge.net/DTD/sodipodi-0.dtd"
   xmlns:inkscape="http://www.inkscape.org/namespaces/inkscape"
   width="44.670486mm"
   height="16.201319mm"
   viewBox="0 0 158.28125 57.406247"
   id="svg2"
   version="1.1"
   inkscape:version="0.91 r13725"
   sodipodi:docname="logo_white.svg">
  <defs
     id="defs4" />
  <sodipodi:namedview
     id="base"
     pagecolor="#ffffff"
     bordercolor="#666666"
     borderopacity="1.0"
     inkscape:pageopacity="0.0"
     inkscape:pageshadow="2"
     inkscape:zoom="1.4"
     inkscape:cx="130.39169"
     inkscape:cy="-152.33734"
     inkscape:document-units="px"
     inkscape:current-layer="layer1"
     showgrid="false"
     fit-margin-top="0"
     fit-margin-left="0"
     fit-margin-right="0"
     fit-margin-bottom="0"
     inkscape:window-width="1920"
     inkscape:window-height="1017"
     inkscape:window-x="1272"
     inkscape:window-y="-8"
     inkscape:window-maximized="1" />
  <metadata
     id="metadata7">
    <rdf:RDF>
      <cc:Work
         rdf:about="">
        <dc:format>image/svg+xml</dc:format>
        <dc:type
           rdf:resource="http://purl.org/dc/dcmitype/StillImage" />
        <dc:title></dc:title>
      </cc:Work>
    </rdf:RDF>
  </metadata>
  <g
     inkscape:label="Taso 1"
     inkscape:groupmode="layer"
     id="layer1"
     transform="translate(-135.01171,-284.22742)">
    <path
       style="opacity:1;fill:#ffffff;fill-opacity:1;stroke:none"
       d="m 250.13671,284.22742 c -7.38402,0 -13.34375,5.95973 -13.34375,13.34375 l 0,30.71875 c 0,7.38402 5.95973,13.34375 13.34375,13.34375 l 29.8125,0 c 7.38402,0 13.34375,-5.95973 13.34375,-13.34375 l 0,-30.71875 c 0,-7.38402 -5.95973,-13.34375 -13.34375,-13.34375 l -29.8125,0 z m 29.5625,9.625 c 0.40838,0.0122 0.82346,0.0589 1.21875,0.125 3.16225,0.5288 6.5,1.99415 6.5,5.15625 0,3.66137 -2.09492,7.26305 -5.3125,9.09375 -2.05259,1.22044 -3.11671,1.47964 -7,1.8125 -1.83069,-0.0555 -2.73668,1.84005 -3.125,6.5 l -1.90625,0.625 c 0.33286,-4.04971 0.46947,-4.8878 0.96875,-8.9375 l 1,-0.875 c 1.22046,0.27742 1.78584,0.34375 2.5625,0.34375 2.60735,0 4.45371,-0.79432 6.0625,-2.625 1.38688,-1.66428 2.1875,-3.74587 2.1875,-5.6875 0,-2.16354 -1.09682,-2.93084 -2.65625,-3.28125 -3.04122,-0.68338 -5.27799,0.22362 -7.5,1.46875 -2.92619,1.63973 -4.37197,2.86046 -6.8125,7.40625 -4.06527,7.57208 -6.84375,22.98181 -6.84375,24.8125 0,0.83212 0.30621,1.4375 0.75,1.4375 0.49928,0 2.07386,-0.89195 5.125,-3 0.22641,-0.13585 0.74389,-0.44066 1.28125,-0.78125 0.71454,-2.81356 2.17153,-5.38647 4.03125,-6.78125 2.43859,-1.8186 5.06547,-3 6.71875,-3 2.19058,0 3.71875,1.58058 3.71875,3.8125 0,2.85189 -1.31548,6.89309 -2.96875,9.125 -0.74398,0.99196 -2.1209,2.0302 -4.1875,3.1875 -1.90126,0.99195 -3.06146,1.40625 -4.21875,1.40625 -2.19059,0 -3.59375,-1.60376 -3.59375,-4.125 0,-0.60465 0.0467,-1.2061 0.125,-1.8125 -4.47304,3.19758 -9.04626,5.96875 -9.90625,5.96875 -0.77666,0 -1.21875,-0.578 -1.21875,-1.6875 0,-0.99856 0.19137,-2.64438 0.46875,-4.03125 -5.82493,4.21612 -8.25848,5.71875 -9.3125,5.71875 -0.99856,0 -2.125,-2.14194 -2.125,-4.25 0,-3.82781 2.48883,-11.68021 4.375,-13.84375 2.219,-2.44092 6.99902,-5.40625 8.71875,-5.40625 0.4438,0 1.25145,0.0906 2.25,0.3125 0.2219,-0.83213 2.30835,-5.49504 4.03125,-7.90625 3.1478,-4.40539 5.22619,-6.00234 8.59375,-8 2.05495,-1.21901 4.39184,-2.0812 6.78125,-2.25 0.39824,-0.0281 0.81037,-0.0433 1.21875,-0.0313 z m -144.6875,11.875 7.6875,29.0625 4.25,0 6,-24.125 6.09375,24.125 4.375,0 7.5625,-29.0625 -3.8125,0 -6.0625,24.40625 -6.0625,-24.40625 -3.9375,0 -6.03125,24.1875 -6.09375,-24.1875 -3.96875,0 z m 63.625,1 0,6.25 -2.5,0 0,3.09375 2.5,0 0,11.59375 c 0,2.64323 0.55989,4.58334 1.71875,5.78125 1.15885,1.19792 2.86718,1.78125 5.09375,1.78125 0.63801,0 1.34895,-0.0391 2.15625,-0.15625 0.8203,-0.11719 1.59113,-0.28646 2.28125,-0.46875 l 0,-3.28125 -0.21875,0 c -0.28647,0.11719 -0.75522,0.25521 -1.40625,0.4375 -0.65105,0.16927 -1.27605,0.25 -1.875,0.25 -1.02866,0 -1.77345,-0.10937 -2.28125,-0.34375 -0.4948,-0.24739 -0.90105,-0.63541 -1.1875,-1.15625 -0.31251,-0.55989 -0.47917,-1.17447 -0.53125,-1.8125 -0.0521,-0.65103 -0.0938,-1.54166 -0.0937,-2.6875 l 0,-9.9375 7.59375,0 0,-3.09375 -7.59375,0 0,-6.25 -3.65625,0 z m 24.21875,5.65625 c -3.08595,2e-5 -5.52084,1.02346 -7.34375,3.09375 -1.8099,2.05731 -2.71875,4.88283 -2.71875,8.4375 0,3.55469 0.90885,6.34896 2.71875,8.40625 1.82291,2.05729 4.2578,3.09375 7.34375,3.09375 3.05988,0 5.52082,-1.03646 7.34375,-3.09375 1.8229,-2.05729 2.71873,-4.85156 2.71875,-8.40625 -2e-5,-3.55467 -0.89585,-6.38019 -2.71875,-8.4375 -1.82293,-2.07029 -4.28387,-3.09373 -7.34375,-3.09375 z m -40.9375,0.0625 c -1.31511,2e-5 -2.67709,0.14065 -4.03125,0.375 -1.35417,0.2344 -2.37761,0.42971 -3.09375,0.625 l 0,3.75 0.1875,0 c 1.26302,-0.48175 2.5026,-0.84634 3.6875,-1.09375 1.18489,-0.2604 2.2552,-0.40623 3.21875,-0.40625 0.79426,2e-5 1.55207,0.0521 2.28125,0.15625 0.72915,0.10419 1.35415,0.32554 1.875,0.625 0.54686,0.31252 0.96353,0.73439 1.25,1.28125 0.29946,0.54689 0.43748,1.22918 0.4375,2.0625 l 0,0.5625 c -2.13543,0.10418 -4.10678,0.26043 -5.96875,0.46875 -1.86199,0.20835 -3.48438,0.60158 -4.8125,1.1875 -1.31511,0.58595 -2.31511,1.40887 -3.03125,2.4375 -0.70313,1.01563 -1.0625,2.34636 -1.0625,4 0,2.01823 0.69531,3.66667 2.0625,4.96875 1.36718,1.30208 3.03385,1.96875 5,1.96875 1.0677,0 1.98697,-0.10417 2.78125,-0.3125 0.79426,-0.19531 1.51301,-0.45052 2.125,-0.75 0.52082,-0.23437 1.04686,-0.54687 1.59375,-0.9375 0.55988,-0.40364 0.98696,-0.71614 1.3125,-0.9375 l 0,2.3125 3.65625,0 0,-14.78125 c -2e-5,-1.40623 -0.19533,-2.58071 -0.625,-3.53125 -0.42971,-0.9505 -1.05471,-1.74477 -1.875,-2.34375 -0.83335,-0.61196 -1.82293,-1.03383 -2.96875,-1.28125 -1.13283,-0.26039 -2.46355,-0.40623 -4,-0.40625 z m 73.375,1.875 c -2.82925,0 -4.98496,2.77198 -6.59375,8.375 -0.66569,2.4409 -0.96875,4.54432 -0.96875,6.375 0,1.60878 0.37959,2.46875 1.15625,2.46875 0.77664,0 2.00333,-0.73398 6.71875,-4.0625 l 2.59375,-11.6875 c -1.16497,-1.10952 -1.90771,-1.46875 -2.90625,-1.46875 z m -32.4375,1.21875 c 1.96613,2e-5 3.51821,0.68231 4.625,2.0625 1.10675,1.3672 1.65623,3.48699 1.65625,6.3125 -2e-5,2.76042 -0.56773,4.84376 -1.6875,6.25 -1.10679,1.39323 -2.64064,2.09375 -4.59375,2.09375 -1.97918,0 -3.51824,-0.71875 -4.625,-2.125 -1.10678,-1.41926 -1.65626,-3.48437 -1.65625,-6.21875 -1e-5,-2.82551 0.53124,-4.9453 1.625,-6.3125 1.10676,-1.38019 2.66405,-2.06248 4.65625,-2.0625 z m 51.96875,4.0625 c -2.89323,0 -5.90625,4.9555 -5.90625,9.75 0,2.35591 1.0554,3.90625 2.75,3.90625 1.57062,0 3.06145,-1.30034 4.21875,-3.65625 1.0333,-2.02527 1.625,-4.17032 1.625,-5.90625 0,-2.47991 -1.03423,-4.09375 -2.6875,-4.09375 z m -87.09375,3.75 0,6.09375 c -0.91147,0.70313 -1.90106,1.30469 -2.96875,1.8125 -1.06772,0.49479 -2.2422,0.71875 -3.53125,0.71875 -1.54949,0 -2.6823,-0.3125 -3.4375,-0.9375 -0.75521,-0.63802 -1.15626,-1.56249 -1.15625,-2.8125 -1e-5,-1.10676 0.34895,-1.96874 1,-2.59375 0.65103,-0.63801 1.5078,-1.10676 2.5625,-1.40625 0.88541,-0.24739 2.08332,-0.43228 3.59375,-0.5625 1.52342,-0.1302 2.81769,-0.24738 3.9375,-0.3125 z"
       id="path3130"
       inkscape:connector-curvature="0" />
  </g>
</svg>
